<svg xmlns="http://www.w3.org/2000/svg" xmlns:svg="http://www.w3.org/2000/svg" id="svg2" width="128" height="128" version="1.1" viewBox="0 0 128 128"><metadata id="metadata7"/><g id="layer1" transform="translate(12.577363,85.204727)"><g id="g3382" transform="matrix(3.5555556,0,0,3.5555556,32.142147,-109.36568)"><path id="path4582" fill="#de4417" fill-opacity="1" fill-rule="evenodd" stroke="none" stroke-linecap="butt" stroke-linejoin="miter" stroke-opacity="1" stroke-width="1" d="m -12.577362,6.7952753 0,35.9999917 18,-9e-6 0,-35.9999918 -18,9.1e-6"/><g id="text4586" fill="#fff" fill-opacity="1" stroke="none" stroke-linecap="butt" stroke-linejoin="miter" stroke-opacity="1" stroke-width="1" font-family="Roboto Slab" font-size="30.715" font-stretch="normal" font-style="normal" font-variant="normal" font-weight="normal" letter-spacing="0" transform="matrix(1.0159995,0,0,1.0159995,0.24548,-0.684702)" word-spacing="0" style="line-height:125%;-inkscape-font-specification:'Roboto Slab'"><path style="-inkscape-font-specification:'Roboto Condensed, '" id="path3360" fill="#fff" d="m -3.4176929,32.584192 q 1.319804,0 2.1146859,-0.809879 0.79488189,-0.824878 0.86987075,-2.339653 l 2.50462795,0 q -0.089987,2.339653 -1.66475272,3.884423 -1.55976828,1.529773 -3.82443188,1.529773 -3.0145521,0 -4.604316,-1.889719 -1.574766,-1.904717 -1.574766,-5.65416 l 0,-1.784735 q 0,-3.674454 1.574766,-5.579171 1.5747661,-1.919715 4.5893183,-1.919715 2.4896301,0 3.94441398,1.574766 1.46978162,1.574766 1.55976832,4.304361 l -2.50462795,0 q -0.0899866,-1.799733 -0.86987075,-2.699599 -0.7648864,-0.899867 -2.1296836,-0.899867 -1.7697371,0 -2.6246101,1.169826 -0.854873,1.154829 -0.8848686,3.809435 l 0,2.069692 q 0,2.864575 0.8398753,4.049398 0.854873,1.184824 2.6846011,1.184824 z" font-family="Roboto Condensed" font-stretch="normal" font-style="normal" font-variant="normal" font-weight="normal"/></g><path id="path3376" fill="#473128" fill-opacity="1" fill-rule="evenodd" stroke="none" stroke-linecap="butt" stroke-linejoin="miter" stroke-opacity="1" stroke-width="1" d="m 5.422638,6.7952662 0,35.9999918 18,-9e-6 0,-35.9999919 -18,9.1e-6"/><g id="g3378" fill="#fff" fill-opacity="1" stroke="none" stroke-linecap="butt" stroke-linejoin="miter" stroke-opacity="1" stroke-width="1" font-family="Roboto Slab" font-size="30.715" font-stretch="normal" font-style="normal" font-variant="normal" font-weight="normal" letter-spacing="0" transform="matrix(1.0159995,0,0,1.0159995,18.24548,-0.6847111)" word-spacing="0" style="line-height:125%;-inkscape-font-specification:'Roboto Slab'"><path id="path3380" fill="#fff" d="m -3.4176929,32.584192 q 1.319804,0 2.1146859,-0.809879 0.79488189,-0.824878 0.86987075,-2.339653 l 2.50462795,0 q -0.089987,2.339653 -1.66475272,3.884423 -1.55976828,1.529773 -3.82443188,1.529773 -3.0145521,0 -4.604316,-1.889719 -1.574766,-1.904717 -1.574766,-5.65416 l 0,-1.784735 q 0,-3.674454 1.574766,-5.579171 1.5747661,-1.919715 4.5893183,-1.919715 2.4896301,0 3.94441398,1.574766 1.46978162,1.574766 1.55976832,4.304361 l -2.50462795,0 q -0.0899866,-1.799733 -0.86987075,-2.699599 -0.7648864,-0.899867 -2.1296836,-0.899867 -1.7697371,0 -2.6246101,1.169826 -0.854873,1.154829 -0.8848686,3.809435 l 0,2.069692 q 0,2.864575 0.8398753,4.049398 0.854873,1.184824 2.6846011,1.184824 z" font-family="Roboto Condensed" font-stretch="normal" font-style="normal" font-variant="normal" font-weight="normal" style="-inkscape-font-specification:'Roboto Condensed, '"/></g></g></g></svg>